<svg width="19" height="19" viewBox="0 0 19 19" fill="none" xmlns="http://www.w3.org/2000/svg">
<path d="M7.86679 13.814C7.97131 13.814 8.05058 13.8105 8.10284 13.8035C8.16414 13.7911 8.21942 13.7583 8.25961 13.7103C8.31188 13.6555 8.33801 13.5762 8.33801 13.4717L8.33452 12.9865C8.33191 12.6773 8.33104 12.4317 8.33104 12.2514L8.16729 12.2802C8.03625 12.3008 7.90356 12.309 7.77098 12.3045C7.60441 12.3016 7.43837 12.285 7.27451 12.2549C7.10063 12.2225 6.93699 12.149 6.7972 12.0406C6.65067 11.9298 6.54131 11.777 6.48364 11.6025L6.41222 11.4379C6.35215 11.3083 6.2767 11.1863 6.1875 11.0747C6.10742 10.9602 6.00071 10.867 5.87656 10.8029L5.82691 10.7681C5.79272 10.7429 5.76172 10.7137 5.73458 10.681C5.70825 10.6513 5.68652 10.6178 5.67013 10.5817C5.65619 10.5486 5.66752 10.5207 5.70497 10.4998C5.7707 10.4734 5.84161 10.4624 5.91227 10.4676L6.05511 10.4894C6.15092 10.5077 6.26851 10.5652 6.40874 10.6601C6.5481 10.7559 6.66394 10.8787 6.75453 11.0311C6.86427 11.2262 6.99579 11.3752 7.15083 11.4771C7.28768 11.5736 7.45026 11.627 7.61769 11.6304C7.77447 11.6304 7.91034 11.6191 8.02445 11.5956C8.13551 11.5725 8.24341 11.5363 8.34584 11.4875C8.38852 11.1696 8.50437 10.924 8.69425 10.7533C8.44774 10.7289 8.20345 10.6858 7.96348 10.6244C7.72917 10.5598 7.50386 10.4662 7.2928 10.3457C7.07177 10.2257 6.87645 10.0636 6.71794 9.86835C6.56639 9.67761 6.44184 9.4285 6.34341 9.11929C6.24079 8.77194 6.19174 8.41097 6.19796 8.04883C6.19796 7.47397 6.38609 6.9836 6.76149 6.57945C6.58555 6.14657 6.6021 5.66142 6.81114 5.12401C6.94963 5.08046 7.15431 5.11269 7.4252 5.21982C7.69608 5.32695 7.89554 5.41841 8.02096 5.49506C8.14726 5.57084 8.24742 5.63442 8.32407 5.68668C8.77018 5.56279 9.23117 5.50066 9.69415 5.50203C10.1645 5.50203 10.6218 5.563 11.0642 5.68755L11.3342 5.51596C11.5206 5.40273 11.7393 5.29734 11.991 5.2024C12.2436 5.10659 12.4361 5.08046 12.5693 5.12401C12.7836 5.66142 12.8028 6.14657 12.6259 6.57858C13.0022 6.9836 13.1904 7.4731 13.1904 8.04883C13.1904 8.45298 13.1416 8.81096 13.044 9.12278C12.9465 9.4346 12.8202 9.6837 12.666 9.87184C12.5049 10.0651 12.3087 10.2262 12.0877 10.3465C11.8766 10.4671 11.6513 10.5607 11.417 10.6253C11.1767 10.6865 10.9321 10.7293 10.6854 10.7533C10.9327 10.9667 11.0564 11.3046 11.0564 11.7663V13.4708C11.0564 13.5518 11.0686 13.6171 11.0921 13.6677C11.1032 13.6917 11.119 13.7133 11.1386 13.7311C11.1582 13.7489 11.1812 13.7626 11.2062 13.7713C11.2585 13.7896 11.3055 13.8018 11.3456 13.8062C11.3865 13.8114 11.444 13.814 11.5198 13.814H7.86679Z" fill="white"/>
<path d="M4.22601 2.48401C3.764 2.48401 3.32092 2.66754 2.99423 2.99423C2.66754 3.32092 2.48401 3.764 2.48401 4.22601V14.678C2.48401 15.14 2.66754 15.5831 2.99423 15.9098C3.32092 16.2365 3.764 16.42 4.22601 16.42H14.678C15.14 16.42 15.5831 16.2365 15.9098 15.9098C16.2365 15.5831 16.42 15.14 16.42 14.678V4.22601C16.42 3.764 16.2365 3.32092 15.9098 2.99423C15.5831 2.66754 15.14 2.48401 14.678 2.48401H4.22601ZM4.22601 0.742004H14.678C15.602 0.742004 16.4882 1.10907 17.1416 1.76245C17.795 2.41582 18.162 3.30199 18.162 4.22601V14.678C18.162 15.602 17.795 16.4882 17.1416 17.1416C16.4882 17.795 15.602 18.162 14.678 18.162H4.22601C3.30199 18.162 2.41582 17.795 1.76245 17.1416C1.10907 16.4882 0.742004 15.602 0.742004 14.678V4.22601C0.742004 3.30199 1.10907 2.41582 1.76245 1.76245C2.41582 1.10907 3.30199 0.742004 4.22601 0.742004Z" fill="white"/>
</svg>
