<svg width="19" height="18" viewBox="0 0 19 18" fill="none" xmlns="http://www.w3.org/2000/svg">
<path d="M6.12405 0H13.6841C16.5641 0 18.9041 2.34 18.9041 5.22V12.78C18.9041 14.1644 18.3541 15.4922 17.3752 16.4711C16.3962 17.45 15.0685 18 13.6841 18H6.12405C3.24405 18 0.904053 15.66 0.904053 12.78V5.22C0.904053 3.83557 1.45402 2.50784 2.43296 1.5289C3.4119 0.549963 4.73962 0 6.12405 0ZM5.94405 1.8C5.08475 1.8 4.26064 2.14136 3.65303 2.74897C3.04541 3.35659 2.70405 4.1807 2.70405 5.04V12.96C2.70405 14.751 4.15305 16.2 5.94405 16.2H13.8641C14.7234 16.2 15.5475 15.8586 16.1551 15.251C16.7627 14.6434 17.1041 13.8193 17.1041 12.96V5.04C17.1041 3.249 15.6551 1.8 13.8641 1.8H5.94405ZM14.6291 3.15C14.9274 3.15 15.2136 3.26853 15.4245 3.4795C15.6355 3.69048 15.7541 3.97663 15.7541 4.275C15.7541 4.57337 15.6355 4.85952 15.4245 5.0705C15.2136 5.28147 14.9274 5.4 14.6291 5.4C14.3307 5.4 14.0445 5.28147 13.8336 5.0705C13.6226 4.85952 13.5041 4.57337 13.5041 4.275C13.5041 3.97663 13.6226 3.69048 13.8336 3.4795C14.0445 3.26853 14.3307 3.15 14.6291 3.15ZM9.90405 4.5C11.0975 4.5 12.2421 4.97411 13.086 5.81802C13.9299 6.66193 14.4041 7.80653 14.4041 9C14.4041 10.1935 13.9299 11.3381 13.086 12.182C12.2421 13.0259 11.0975 13.5 9.90405 13.5C8.71058 13.5 7.56599 13.0259 6.72207 12.182C5.87816 11.3381 5.40405 10.1935 5.40405 9C5.40405 7.80653 5.87816 6.66193 6.72207 5.81802C7.56599 4.97411 8.71058 4.5 9.90405 4.5ZM9.90405 6.3C9.18797 6.3 8.50121 6.58446 7.99486 7.09081C7.48852 7.59716 7.20405 8.28392 7.20405 9C7.20405 9.71608 7.48852 10.4028 7.99486 10.9092C8.50121 11.4155 9.18797 11.7 9.90405 11.7C10.6201 11.7 11.3069 11.4155 11.8132 10.9092C12.3196 10.4028 12.6041 9.71608 12.6041 9C12.6041 8.28392 12.3196 7.59716 11.8132 7.09081C11.3069 6.58446 10.6201 6.3 9.90405 6.3Z" fill="white"/>
</svg>
