<svg width="19" height="19" viewBox="0 0 19 19" fill="none" xmlns="http://www.w3.org/2000/svg">
<path d="M13.7111 10.4362V13.6563H11.8445V10.6514C11.8445 9.8971 11.5745 9.38234 10.8986 9.38234C10.383 9.38234 10.0755 9.729 9.94051 10.0652C9.89174 10.1854 9.87867 10.3526 9.87867 10.5199V13.6563H8.01124C8.01124 13.6563 8.0365 8.56795 8.01124 8.04099H9.87867V8.83622L9.86648 8.85451H9.87867V8.83622C10.1269 8.45298 10.5694 7.9086 11.5614 7.9086C12.7896 7.9086 13.7111 8.71167 13.7111 10.4362ZM6.05759 5.33305C5.41914 5.33305 5.00106 5.75287 5.00106 6.30335C5.00106 6.84337 5.40695 7.27451 6.0332 7.27451H6.04539C6.6969 7.27451 7.10192 6.8425 7.10192 6.30335C7.08972 5.75287 6.6969 5.33305 6.05759 5.33305ZM5.11168 13.6563H6.97911V8.04099H5.11168V13.6563Z" fill="white"/>
<path d="M4.13006 2.48401C3.66805 2.48401 3.22497 2.66754 2.89828 2.99423C2.57159 3.32092 2.38806 3.764 2.38806 4.22601V14.678C2.38806 15.14 2.57159 15.5831 2.89828 15.9098C3.22497 16.2365 3.66805 16.42 4.13006 16.42H14.5821C15.0441 16.42 15.4872 16.2365 15.8139 15.9098C16.1405 15.5831 16.3241 15.14 16.3241 14.678V4.22601C16.3241 3.764 16.1405 3.32092 15.8139 2.99423C15.4872 2.66754 15.0441 2.48401 14.5821 2.48401H4.13006ZM4.13006 0.742004H14.5821C15.5061 0.742004 16.3923 1.10907 17.0456 1.76245C17.699 2.41582 18.0661 3.30199 18.0661 4.22601V14.678C18.0661 15.602 17.699 16.4882 17.0456 17.1416C16.3923 17.795 15.5061 18.162 14.5821 18.162H4.13006C3.20605 18.162 2.31988 17.795 1.6665 17.1416C1.01312 16.4882 0.646057 15.602 0.646057 14.678V4.22601C0.646057 3.30199 1.01312 2.41582 1.6665 1.76245C2.31988 1.10907 3.20605 0.742004 4.13006 0.742004Z" fill="white"/>
</svg>
